# xmcd CD database file
#
# Track frame offsets:
#	150
#	31000
#	72022
#	98159
#	167304
#	191521
#	215258
#	240257
#	263514
#	275313
#	319839
#
# Disc length: 4485 seconds
#
# Revision: 0
# Processed by: cddbd v1.5.2PL0 Copyright (c) Steve Scherf et al.
# Submitted via: CDex 1.70beta2
#
DISCID=8011830b
DTITLE=Pat Metheny - The Road to You - Live in Europe
DYEAR=1993
DGENRE=Jazz
TTITLE0=Have You heard
TTITLE1=First Circle
TTITLE2=The Road to You
TTITLE3=Half Life of Absolution
TTITLE4=Last Train Home
TTITLE5=Better Days Ahead
TTITLE6=Naked Moon
TTITLE7=Beat 70
TTITLE8=Letter from Home
TTITLE9=Third Wind
TTITLE10=Solo from 'more Travels'
EXTD=YEAR: 1993
EXTT0=
EXTT1=
EXTT2=
EXTT3=
EXTT4=
EXTT5=
EXTT6=
EXTT7=
EXTT8=
EXTT9=
EXTT10=
PLAYORDER=
